<mxfile host="Electron" agent="Mozilla/5.0 (Macintosh; Intel Mac OS X 10_15_7) AppleWebKit/537.36 (KHTML, like Gecko) draw.io/27.0.9 Chrome/134.0.6998.205 Electron/35.4.0 Safari/537.36" version="27.0.9">
  <diagram name="Страница — 1" id="vNQqq8QYzeZS6YyhV_xA">
    <mxGraphModel dx="970" dy="641" grid="1" gridSize="10" guides="1" tooltips="1" connect="1" arrows="1" fold="1" page="1" pageScale="1" pageWidth="827" pageHeight="1169" math="0" shadow="0">
      <root>
        <mxCell id="0" />
        <mxCell id="1" parent="0" />
        <mxCell id="C1s4LdAudgQmSnEJOuN_-50" value="" style="edgeStyle=orthogonalEdgeStyle;rounded=0;orthogonalLoop=1;jettySize=auto;html=1;" parent="1" target="C1s4LdAudgQmSnEJOuN_-37" edge="1">
          <mxGeometry relative="1" as="geometry">
            <mxPoint x="723.8299999999999" y="413.214285714286" as="sourcePoint" />
          </mxGeometry>
        </mxCell>
        <mxCell id="C1s4LdAudgQmSnEJOuN_-34" value="Интернет-банк" style="rounded=1;whiteSpace=wrap;html=1;" parent="1" vertex="1">
          <mxGeometry x="153.82999999999998" y="394" width="120" height="40" as="geometry" />
        </mxCell>
        <mxCell id="C1s4LdAudgQmSnEJOuN_-35" value="Сайт" style="rounded=1;whiteSpace=wrap;html=1;" parent="1" vertex="1">
          <mxGeometry x="287.83" y="394" width="120" height="40" as="geometry" />
        </mxCell>
        <mxCell id="C1s4LdAudgQmSnEJOuN_-36" value="Отделение банка" style="rounded=1;whiteSpace=wrap;html=1;" parent="1" vertex="1">
          <mxGeometry x="420.83" y="394" width="120" height="40" as="geometry" />
        </mxCell>
        <mxCell id="C1s4LdAudgQmSnEJOuN_-37" value="Call-центр" style="rounded=1;whiteSpace=wrap;html=1;" parent="1" vertex="1">
          <mxGeometry x="552.83" y="394" width="120" height="40" as="geometry" />
        </mxCell>
        <mxCell id="C1s4LdAudgQmSnEJOuN_-58" style="edgeStyle=orthogonalEdgeStyle;rounded=0;orthogonalLoop=1;jettySize=auto;html=1;entryX=0.5;entryY=0;entryDx=0;entryDy=0;curved=1;" parent="1" source="C1s4LdAudgQmSnEJOuN_-44" target="C1s4LdAudgQmSnEJOuN_-46" edge="1">
          <mxGeometry relative="1" as="geometry" />
        </mxCell>
        <mxCell id="C1s4LdAudgQmSnEJOuN_-44" value="Автоматизированная банковская система" style="rounded=1;whiteSpace=wrap;html=1;strokeWidth=3;fillColor=#f5f5f5;fontColor=#333333;strokeColor=#666666;" parent="1" vertex="1">
          <mxGeometry x="232.83" y="517" width="361" height="77" as="geometry" />
        </mxCell>
        <mxCell id="C1s4LdAudgQmSnEJOuN_-59" value="" style="edgeStyle=orthogonalEdgeStyle;rounded=0;orthogonalLoop=1;jettySize=auto;html=1;" parent="1" source="C1s4LdAudgQmSnEJOuN_-46" target="C1s4LdAudgQmSnEJOuN_-47" edge="1">
          <mxGeometry relative="1" as="geometry" />
        </mxCell>
        <mxCell id="C1s4LdAudgQmSnEJOuN_-46" value="СМС-шлюз" style="rounded=1;whiteSpace=wrap;html=1;" parent="1" vertex="1">
          <mxGeometry x="353.33" y="634" width="120" height="40" as="geometry" />
        </mxCell>
        <mxCell id="C1s4LdAudgQmSnEJOuN_-47" value="Телеком оператор" style="rounded=1;whiteSpace=wrap;html=1;" parent="1" vertex="1">
          <mxGeometry x="353.33" y="694" width="120" height="40" as="geometry" />
        </mxCell>
        <mxCell id="C1s4LdAudgQmSnEJOuN_-51" value="Партнерский&amp;nbsp;&lt;div&gt;call-центр&lt;/div&gt;" style="rounded=1;whiteSpace=wrap;html=1;" parent="1" vertex="1">
          <mxGeometry x="663.83" y="517" width="120" height="40" as="geometry" />
        </mxCell>
        <mxCell id="c2ZUAJXX71STf7v2IrPp-1" value="Клиент" style="shape=umlActor;verticalLabelPosition=bottom;verticalAlign=top;html=1;outlineConnect=0;" vertex="1" parent="1">
          <mxGeometry x="398.33" y="220" width="30" height="60" as="geometry" />
        </mxCell>
        <mxCell id="c2ZUAJXX71STf7v2IrPp-3" value="" style="endArrow=classic;html=1;rounded=0;entryX=0.5;entryY=0;entryDx=0;entryDy=0;" edge="1" parent="1" target="C1s4LdAudgQmSnEJOuN_-34">
          <mxGeometry width="50" height="50" relative="1" as="geometry">
            <mxPoint x="410" y="334" as="sourcePoint" />
            <mxPoint x="280" y="374" as="targetPoint" />
            <Array as="points">
              <mxPoint x="214" y="334" />
            </Array>
          </mxGeometry>
        </mxCell>
        <mxCell id="c2ZUAJXX71STf7v2IrPp-4" value="" style="endArrow=classic;html=1;rounded=0;entryX=0.521;entryY=-0.013;entryDx=0;entryDy=0;entryPerimeter=0;" edge="1" parent="1" target="C1s4LdAudgQmSnEJOuN_-35">
          <mxGeometry width="50" height="50" relative="1" as="geometry">
            <mxPoint x="410" y="334" as="sourcePoint" />
            <mxPoint x="430" y="374" as="targetPoint" />
            <Array as="points">
              <mxPoint x="350" y="334" />
            </Array>
          </mxGeometry>
        </mxCell>
        <mxCell id="c2ZUAJXX71STf7v2IrPp-5" value="" style="endArrow=classic;html=1;rounded=0;entryX=0.522;entryY=-0.003;entryDx=0;entryDy=0;entryPerimeter=0;" edge="1" parent="1" target="C1s4LdAudgQmSnEJOuN_-36">
          <mxGeometry width="50" height="50" relative="1" as="geometry">
            <mxPoint x="410" y="334" as="sourcePoint" />
            <mxPoint x="460" y="374" as="targetPoint" />
            <Array as="points">
              <mxPoint x="484" y="334" />
            </Array>
          </mxGeometry>
        </mxCell>
        <mxCell id="c2ZUAJXX71STf7v2IrPp-6" value="" style="endArrow=none;html=1;rounded=0;" edge="1" parent="1">
          <mxGeometry width="50" height="50" relative="1" as="geometry">
            <mxPoint x="410" y="304" as="sourcePoint" />
            <mxPoint x="410" y="334" as="targetPoint" />
          </mxGeometry>
        </mxCell>
        <mxCell id="c2ZUAJXX71STf7v2IrPp-7" value="" style="endArrow=classic;html=1;rounded=0;entryX=0.56;entryY=-0.022;entryDx=0;entryDy=0;entryPerimeter=0;" edge="1" parent="1" target="C1s4LdAudgQmSnEJOuN_-37">
          <mxGeometry width="50" height="50" relative="1" as="geometry">
            <mxPoint x="410" y="334" as="sourcePoint" />
            <mxPoint x="580" y="354" as="targetPoint" />
            <Array as="points">
              <mxPoint x="620" y="334" />
            </Array>
          </mxGeometry>
        </mxCell>
        <mxCell id="c2ZUAJXX71STf7v2IrPp-8" value="" style="endArrow=classic;html=1;rounded=0;entryX=0;entryY=0.5;entryDx=0;entryDy=0;exitX=0.555;exitY=1.018;exitDx=0;exitDy=0;exitPerimeter=0;" edge="1" parent="1" source="C1s4LdAudgQmSnEJOuN_-37" target="C1s4LdAudgQmSnEJOuN_-51">
          <mxGeometry width="50" height="50" relative="1" as="geometry">
            <mxPoint x="540" y="484" as="sourcePoint" />
            <mxPoint x="590" y="434" as="targetPoint" />
            <Array as="points">
              <mxPoint x="620" y="537" />
            </Array>
          </mxGeometry>
        </mxCell>
        <mxCell id="c2ZUAJXX71STf7v2IrPp-9" value="&lt;span style=&quot;text-wrap-mode: wrap;&quot;&gt;Оператор&lt;/span&gt;&lt;div&gt;&lt;span style=&quot;text-wrap-mode: wrap;&quot;&gt;call-центра&lt;/span&gt;&lt;/div&gt;" style="shape=umlActor;verticalLabelPosition=bottom;verticalAlign=top;html=1;outlineConnect=0;" vertex="1" parent="1">
          <mxGeometry x="720" y="374" width="30" height="60" as="geometry" />
        </mxCell>
        <mxCell id="c2ZUAJXX71STf7v2IrPp-10" value="&lt;span style=&quot;text-wrap-mode: wrap;&quot;&gt;Менеджер бэк-офиса&lt;/span&gt;" style="shape=umlActor;verticalLabelPosition=bottom;verticalAlign=top;html=1;outlineConnect=0;" vertex="1" parent="1">
          <mxGeometry x="90" y="474" width="30" height="60" as="geometry" />
        </mxCell>
        <mxCell id="c2ZUAJXX71STf7v2IrPp-11" value="" style="endArrow=classic;html=1;rounded=0;entryX=0;entryY=0.455;entryDx=0;entryDy=0;entryPerimeter=0;" edge="1" parent="1" source="c2ZUAJXX71STf7v2IrPp-10" target="C1s4LdAudgQmSnEJOuN_-44">
          <mxGeometry width="50" height="50" relative="1" as="geometry">
            <mxPoint x="150" y="614" as="sourcePoint" />
            <mxPoint x="200" y="564" as="targetPoint" />
            <Array as="points">
              <mxPoint x="180" y="504" />
              <mxPoint x="180" y="552" />
            </Array>
          </mxGeometry>
        </mxCell>
        <mxCell id="c2ZUAJXX71STf7v2IrPp-12" value="&lt;span style=&quot;text-wrap-mode: wrap;&quot;&gt;Менеджер&lt;/span&gt;&lt;div&gt;&lt;span style=&quot;text-wrap-mode: wrap;&quot;&gt;фронт-офиса&lt;/span&gt;&lt;/div&gt;" style="shape=umlActor;verticalLabelPosition=bottom;verticalAlign=top;html=1;outlineConnect=0;" vertex="1" parent="1">
          <mxGeometry x="90" y="584" width="30" height="60" as="geometry" />
        </mxCell>
        <mxCell id="c2ZUAJXX71STf7v2IrPp-13" value="" style="endArrow=classic;html=1;rounded=0;entryX=-0.003;entryY=0.618;entryDx=0;entryDy=0;entryPerimeter=0;" edge="1" parent="1" source="c2ZUAJXX71STf7v2IrPp-12" target="C1s4LdAudgQmSnEJOuN_-44">
          <mxGeometry width="50" height="50" relative="1" as="geometry">
            <mxPoint x="110" y="644" as="sourcePoint" />
            <mxPoint x="160" y="594" as="targetPoint" />
            <Array as="points">
              <mxPoint x="180" y="614" />
              <mxPoint x="180" y="564" />
            </Array>
          </mxGeometry>
        </mxCell>
        <mxCell id="c2ZUAJXX71STf7v2IrPp-14" value="" style="endArrow=classic;html=1;rounded=0;exitX=0.5;exitY=1;exitDx=0;exitDy=0;entryX=0.5;entryY=0;entryDx=0;entryDy=0;" edge="1" parent="1" source="C1s4LdAudgQmSnEJOuN_-34" target="C1s4LdAudgQmSnEJOuN_-44">
          <mxGeometry width="50" height="50" relative="1" as="geometry">
            <mxPoint x="440" y="514" as="sourcePoint" />
            <mxPoint x="490" y="464" as="targetPoint" />
            <Array as="points">
              <mxPoint x="214" y="474" />
              <mxPoint x="413" y="474" />
            </Array>
          </mxGeometry>
        </mxCell>
        <mxCell id="c2ZUAJXX71STf7v2IrPp-15" value="" style="endArrow=classic;html=1;rounded=0;exitX=0.546;exitY=0.989;exitDx=0;exitDy=0;exitPerimeter=0;" edge="1" parent="1" source="C1s4LdAudgQmSnEJOuN_-35">
          <mxGeometry width="50" height="50" relative="1" as="geometry">
            <mxPoint x="353.35" y="436.6400000000001" as="sourcePoint" />
            <mxPoint x="413" y="517" as="targetPoint" />
            <Array as="points">
              <mxPoint x="353" y="474" />
              <mxPoint x="380" y="474" />
              <mxPoint x="413" y="474" />
            </Array>
          </mxGeometry>
        </mxCell>
        <mxCell id="c2ZUAJXX71STf7v2IrPp-16" value="" style="endArrow=classic;html=1;rounded=0;exitX=0.5;exitY=1;exitDx=0;exitDy=0;entryX=0.5;entryY=0;entryDx=0;entryDy=0;" edge="1" parent="1" source="C1s4LdAudgQmSnEJOuN_-36" target="C1s4LdAudgQmSnEJOuN_-44">
          <mxGeometry width="50" height="50" relative="1" as="geometry">
            <mxPoint x="430" y="534" as="sourcePoint" />
            <mxPoint x="480" y="484" as="targetPoint" />
            <Array as="points">
              <mxPoint x="481" y="474" />
              <mxPoint x="413" y="474" />
            </Array>
          </mxGeometry>
        </mxCell>
        <mxCell id="c2ZUAJXX71STf7v2IrPp-17" value="" style="endArrow=classic;html=1;rounded=0;exitX=0.5;exitY=1;exitDx=0;exitDy=0;entryX=0.5;entryY=0;entryDx=0;entryDy=0;" edge="1" parent="1" source="C1s4LdAudgQmSnEJOuN_-37" target="C1s4LdAudgQmSnEJOuN_-44">
          <mxGeometry width="50" height="50" relative="1" as="geometry">
            <mxPoint x="430" y="534" as="sourcePoint" />
            <mxPoint x="480" y="484" as="targetPoint" />
            <Array as="points">
              <mxPoint x="613" y="474" />
              <mxPoint x="413" y="474" />
            </Array>
          </mxGeometry>
        </mxCell>
      </root>
    </mxGraphModel>
  </diagram>
</mxfile>
